# xmcd
#
# Track frame offsets:
#	150
#	37178
#	74868
#	97508
#	127732
#	153134
#	176746
#	199302
#	231928
#	283203
#	315925
#
# Disc length: 4793 seconds
#
# Revision: 2
# Processed by: cddbd v1.5.2PL0 Copyright (c) Steve Scherf et al.
# Submitted via: EasyCDDAExtractor 10.0.3.1
#
DISCID=9612b70b
DTITLE=Dream Theater - Greatest Hit (...And 21 Other Pretty Cool Songs) - CD1
DYEAR=2008
DGENRE=Hard Rock
TTITLE0=Pull Me Under
TTITLE1=Take The Time
TTITLE2=Lie
TTITLE3=Peruvian Skies
TTITLE4=Home
TTITLE5=Misunderstood
TTITLE6=The Test That Stumped Them All
TTITLE7=As I Am
TTITLE8=Endless Sacrifice
TTITLE9=The Root Of All Evil
TTITLE10=Sacrificed Sons
EXTD=
EXTT0=
EXTT1=
EXTT2=
EXTT3=
EXTT4=
EXTT5=
EXTT6=
EXTT7=
EXTT8=
EXTT9=
EXTT10=
PLAYORDER=
